<svg id="Group_2" data-name="Group 2" xmlns="http://www.w3.org/2000/svg" width="18.584" height="22.074" viewBox="0 0 18.584 22.074">
  <path id="Path_1" data-name="Path 1" d="M201.887,184.143c.117.029.233.061.35.087a3.442,3.442,0,0,1,2.667,3.312q0,6.51,0,13.02a.863.863,0,1,1-1.723,0q0-6.424,0-12.847a1.722,1.722,0,0,0-1.277-1.775,2.365,2.365,0,0,0-.6-.069q-4.7-.006-9.4,0a.826.826,0,0,1-.808-.5.789.789,0,0,1,.12-.9,2.311,2.311,0,0,1,.447-.317Z" transform="translate(-186.321 -184.143)" fill="#703a88"/>
  <path id="Path_2" data-name="Path 2" d="M82.429,274.277q0-2.888,0-5.777a3.435,3.435,0,0,1,3.492-3.492H94.07a3.435,3.435,0,0,1,3.492,3.491q0,5.8,0,11.6a3.436,3.436,0,0,1-3.492,3.492q-4.075,0-8.149,0a3.436,3.436,0,0,1-3.492-3.492Q82.428,277.187,82.429,274.277Zm1.723.026q0,2.844,0,5.689a1.745,1.745,0,0,0,1.866,1.874h7.953a1.746,1.746,0,0,0,1.868-1.872q0-5.689,0-11.378a1.747,1.747,0,0,0-1.877-1.884H86.031a1.746,1.746,0,0,0-1.879,1.883Q84.152,271.459,84.152,274.3Z" transform="translate(-82.429 -261.516)" fill="#703a88"/>
</svg>
