<svg id="Group_979" data-name="Group 979" xmlns="http://www.w3.org/2000/svg" width="14.843" height="15.153" viewBox="0 0 14.843 15.153">
  <path id="Path_573" data-name="Path 573" d="M70.5,272.294H69.084a.229.229,0,0,0-.229.229v2.013H57.762v-2.013a.229.229,0,0,0-.229-.229H56.116a.229.229,0,0,0-.229.229v3.662a.229.229,0,0,0,.229.23H70.5a.229.229,0,0,0,.229-.23v-3.662A.229.229,0,0,0,70.5,272.294Z" transform="translate(-55.887 -261.262)" fill="#4d4e50"/>
  <rect id="Rectangle_25" data-name="Rectangle 25" width="4.977" height="1.743" rx="0.871" transform="translate(4.933)" fill="#4d4e50"/>
  <path id="Path_574" data-name="Path 574" d="M66.086,240.2l2.572,3.015a.68.68,0,0,0,.923,0l2.572-3.015,2.572-3.015c.2-.24-.051-.541-.461-.541h-2.7v-2.49a.229.229,0,0,0-.229-.23H66.824a.229.229,0,0,0-.229.23v2.49h-2.62c-.41,0-.667.3-.462.541Z" transform="translate(-61.698 -231.746)" fill="#4d4e50"/>
</svg>
