<svg xmlns="http://www.w3.org/2000/svg" width="12.399" height="12.388" viewBox="0 0 12.399 12.388">
  <path id="edit" d="M10.864,12.387h-9.3a1.494,1.494,0,0,1-1.1-.454,1.49,1.49,0,0,1-.454-1.1v-9.3A1.474,1.474,0,0,1,.469.447,1.5,1.5,0,0,1,1.565,0H8.54L6.99,1.537H2.34a.739.739,0,0,0-.551.23.754.754,0,0,0-.224.545v7.75a.739.739,0,0,0,.23.551.754.754,0,0,0,.545.224h7.75a.765.765,0,0,0,.775-.775V5.412l1.55-1.55v6.975a1.55,1.55,0,0,1-1.55,1.55ZM3.89,6.768,5.634,8.512l-2.519.775ZM6.408,7.931,4.471,6.006l5.8-5.812a.717.717,0,0,1,.981,0l.957.969a.672.672,0,0,1,.2.478.648.648,0,0,1-.2.49Z" transform="translate(-0.015 0.001)" fill="#272727"/>
</svg>
