<svg xmlns="http://www.w3.org/2000/svg" width="15.062" height="14.62" viewBox="0 0 15.062 14.62">
  <path id="bx-hide" d="M10.531,16.021a8.821,8.821,0,0,0,1.956-.212l-1.323-1.323c-.206.016-.414.029-.633.029A6.286,6.286,0,0,1,4.563,10.75,6.508,6.508,0,0,1,5.7,9.02L4.645,7.967a8.016,8.016,0,0,0-1.606,2.545.749.749,0,0,0,0,.477A7.9,7.9,0,0,0,10.531,16.021Zm0-10.543a8.083,8.083,0,0,0-3.467.739L4.285,3.44,3.221,4.5,16.776,18.06l1.065-1.065-2.5-2.5a8.2,8.2,0,0,0,2.681-3.507.749.749,0,0,0,0-.477A7.9,7.9,0,0,0,10.531,5.478Zm3.744,7.951-1.717-1.717a2.187,2.187,0,0,0,.232-.962,2.274,2.274,0,0,0-2.259-2.259,2.166,2.166,0,0,0-.961.233L8.207,7.362a6.973,6.973,0,0,1,2.323-.378A6.286,6.286,0,0,1,16.5,10.75,6.445,6.445,0,0,1,14.275,13.429Z" transform="translate(-3 -3.44)" fill="#272727"/>
</svg>
