<svg xmlns="http://www.w3.org/2000/svg" width="170" height="170" viewBox="0 0 170 170">
  <g id="Group_972" data-name="Group 972" transform="translate(-870 -227)">
    <g id="Ellipse_15" data-name="Ellipse 15" transform="translate(870 227)" fill="#fff" stroke="#723984" stroke-width="0.1">
      <circle cx="85" cy="85" r="85" stroke="none"/>
      <circle cx="85" cy="85" r="84.95" fill="none"/>
    </g>
    <g id="Ellipse_14" data-name="Ellipse 14" transform="translate(878 235)" fill="#fff" stroke="#723984" stroke-width="0.25">
      <circle cx="77" cy="77" r="77" stroke="none"/>
      <circle cx="77" cy="77" r="76.875" fill="none"/>
    </g>
    <g id="Ellipse_3" data-name="Ellipse 3" transform="translate(880 237)" fill="#fff" stroke="#723984" stroke-width="0.5">
      <circle cx="75" cy="75" r="75" stroke="none"/>
      <circle cx="75" cy="75" r="74.75" fill="none"/>
    </g>
    <path id="Path_1775" data-name="Path 1775" d="M24.41-2.1A22.817,22.817,0,0,1,12.261-5.2,19.852,19.852,0,0,1,4.6-13.683,27.763,27.763,0,0,1,2.01-25.9,27.751,27.751,0,0,1,4.984-39.247a19.534,19.534,0,0,1,8.511-8.321,28.635,28.635,0,0,1,13.13-2.816,59.5,59.5,0,0,1,8.669.633q4.3.633,7.277,1.329L41.812-36.21H34.218l-1.772-8.353A4.708,4.708,0,0,0,30.39-45.67a13.659,13.659,0,0,0-4.018-.475,9.756,9.756,0,0,0-8.732,4.967q-3.1,4.967-3.1,14.4,0,9.365,2.626,14.839t8.194,5.474a13.473,13.473,0,0,0,4.145-.6,6.94,6.94,0,0,0,2.816-1.55V-21.846l-5.885-.633V-27.1H46.178v4.619l-3.164.506V-5.33a39.339,39.339,0,0,0-5,1.012Q34.155-3.305,31.055-2.7A34.9,34.9,0,0,1,24.41-2.1Zm45.56,0Q59.34-2.1,54.214-8.526T49.089-26.212a28.583,28.583,0,0,1,2.689-12.75A19.919,19.919,0,0,1,59.34-47.41a21.426,21.426,0,0,1,11.39-2.974q10.884,0,16.041,6.043T91.928-27.1a29.832,29.832,0,0,1-2.721,13.067,20.739,20.739,0,0,1-7.688,8.8A21.189,21.189,0,0,1,69.97-2.1Zm.569-44.1q-4.556,0-7.055,5t-2.5,14.934q0,10.124,2.468,15.028t7.024,4.9q4.493,0,6.992-5.347t2.5-15.345q0-10.124-2.4-14.649T70.54-46.208Z" transform="translate(907.657 337.828)" fill="#703a88"/>
  </g>
</svg>
