<svg xmlns="http://www.w3.org/2000/svg" width="14.879" height="17" viewBox="0 0 14.879 17">
  <g id="network-globe-line" transform="translate(-3.75 -2)">
    <path id="Path_1776" data-name="Path 1776" d="M17.674,32H8.111a.531.531,0,0,0,0,1.063h9.562a.531.531,0,1,0,0-1.062Z" transform="translate(-1.795 -14.063)"/>
    <path id="Path_1777" data-name="Path 1777" d="M11.188,2A7.438,7.438,0,0,0,3.75,9.438a4.467,4.467,0,0,0,.037.707A7.438,7.438,0,1,0,11.188,2Zm0,1.063a6.375,6.375,0,0,1,4.484,1.849v.531A9.833,9.833,0,0,0,9.2,5.469a1.238,1.238,0,0,0-.606-.324H8.457c-.064-.223-.122-.446-.17-.675s-.074-.43-.1-.648a6.332,6.332,0,0,1,3-.76ZM9.594,6.181a9.031,9.031,0,0,1,5.934.069,8.978,8.978,0,0,1-1.652,3.719,1.211,1.211,0,0,0-1.371.3,4.758,4.758,0,0,1-.531-.335A8.5,8.5,0,0,1,9.355,7.158a1.2,1.2,0,0,0,.25-.94ZM7.469,4.268a1.884,1.884,0,0,0,.053.34c.048.234.112.462.175.691a1.211,1.211,0,0,0-.584,1.2,9.733,9.733,0,0,0-2.221,2A6.375,6.375,0,0,1,7.474,4.268Zm0,8.346a1.243,1.243,0,0,0-.823.935h-.34A6.343,6.343,0,0,1,4.839,9.926l.058-.1a8.978,8.978,0,0,1,2.555-2.6,1.227,1.227,0,0,0,1.211.335,9.313,9.313,0,0,0,2.842,3c.218.143.441.276.664.4a1.232,1.232,0,0,0,.1.6,9,9,0,0,1-3.294,1.652,1.243,1.243,0,0,0-1.5-.59ZM11.188,15.8A6.333,6.333,0,0,1,8.1,15l.149-.032a1.243,1.243,0,0,0,.834-.951A9.791,9.791,0,0,0,12.8,12.157a1.217,1.217,0,0,0,1.594-.329,9.249,9.249,0,0,0,2.3.3h.282a6.375,6.375,0,0,1-5.785,3.687Zm3.458-4.728a1.238,1.238,0,0,0-.175-.632,9.775,9.775,0,0,0,1.8-3.915q.4.186.786.414a6.375,6.375,0,0,1,.223,4.356,8.5,8.5,0,0,1-2.63-.207Z" transform="translate(0 0)"/>
  </g>
</svg>
