<svg id="Group_962" data-name="Group 962" xmlns="http://www.w3.org/2000/svg" width="13.463" height="13.464" viewBox="0 0 13.463 13.464">
  <path id="Path_523" data-name="Path 523" d="M459.67,701.155a4.007,4.007,0,1,0,4.007-4.007A4.011,4.011,0,0,0,459.67,701.155Zm6.8-.244a2.8,2.8,0,1,1-3.035-2.547A2.8,2.8,0,0,1,466.468,700.911Z" transform="translate(-456.945 -694.423)" fill="#4d4e50"/>
  <path id="Path_524" data-name="Path 524" d="M457.457,691.655l.662-.026a.409.409,0,0,0,.354-.282l.218-1.049a.409.409,0,0,0-.212-.4l-.6-.289a.5.5,0,0,1-.256-.4s0-.077-.017-.258l-.005-.062c-.009-.068.091-.191.222-.273l.562-.355a.409.409,0,0,0,.166-.421l-.332-1.017a.409.409,0,0,0-.383-.24l-.664.048a.474.474,0,0,1-.406-.187c-.069-.115-.213-.513-.141-.649l.309-.587a.408.408,0,0,0-.067-.447l-.8-.714a.408.408,0,0,0-.452-.017l-.55.373a.474.474,0,0,1-.445.041c-.117-.064-.441-.339-.447-.493l-.026-.662a.408.408,0,0,0-.282-.354l-1.048-.218a.408.408,0,0,0-.4.211l-.289.6a.5.5,0,0,1-.4.256s-.077,0-.258.017l-.063.006c-.068.008-.191-.092-.273-.222l-.355-.563a.408.408,0,0,0-.421-.166l-1.018.332a.408.408,0,0,0-.241.383l.048.664a.474.474,0,0,1-.188.406c-.114.069-.512.213-.648.141l-.588-.309a.408.408,0,0,0-.447.067l-.714.8a.408.408,0,0,0-.017.452l.373.55a.473.473,0,0,1,.041.444c-.064.117-.339.44-.493.447l-.663.026a.409.409,0,0,0-.354.282l-.218,1.049a.409.409,0,0,0,.212.4l.6.289a.5.5,0,0,1,.256.4s0,.078.017.258l.006.063c.008.068-.091.191-.222.273l-.562.355a.408.408,0,0,0-.166.421l.332,1.017a.409.409,0,0,0,.383.241l.664-.048a.474.474,0,0,1,.406.187c.069.114.213.512.141.649l-.309.587a.408.408,0,0,0,.067.448l.8.714a.409.409,0,0,0,.452.017l.55-.373a.471.471,0,0,1,.444-.041c.116.064.44.339.447.493l.026.663a.409.409,0,0,0,.282.354l1.048.218a.409.409,0,0,0,.4-.212l.29-.6a.5.5,0,0,1,.4-.257s.077,0,.258-.016l.062-.005c.068-.009.191.091.273.221l.355.563a.408.408,0,0,0,.421.166l1.017-.333a.408.408,0,0,0,.241-.383l-.048-.664a.476.476,0,0,1,.187-.406c.114-.07.512-.213.649-.141l.587.309a.407.407,0,0,0,.447-.067l.714-.8a.408.408,0,0,0,.017-.452l-.373-.549a.472.472,0,0,1-.041-.444C457.028,691.985,457.3,691.661,457.457,691.655Zm-5.494,2.351a4.566,4.566,0,1,1,4.565-4.565A4.571,4.571,0,0,1,451.963,694.006Z" transform="translate(-445.232 -682.708)" fill="#4d4e50"/>
</svg>
