<svg xmlns="http://www.w3.org/2000/svg" width="15.752" height="15.752" viewBox="0 0 15.752 15.752">
  <g id="md-speedometer" transform="translate(-3.375 -3.375)">
    <path id="Path_1771" data-name="Path 1771" d="M9,29.25h9.693v1.818H9Z" transform="translate(-2.596 -11.941)" fill="#272727"/>
    <path id="Path_1772" data-name="Path 1772" d="M15.42,16.632a1.212,1.212,0,1,0,0-2.423,1.227,1.227,0,0,0-.333.045L12.561,12.41l-.151.132,1.851,2.526a1.188,1.188,0,0,0-.053.352A1.21,1.21,0,0,0,15.42,16.632Z" transform="translate(-4.169 -4.169)" fill="#272727"/>
    <path id="Path_1773" data-name="Path 1773" d="M11.251,3.375A7.874,7.874,0,0,0,5.045,16.1H7.271l.151-.151.837-.837-.867-.867-.837.833a6.037,6.037,0,0,1-1.333-3.219H6.4V10.645H5.223A6.037,6.037,0,0,1,6.556,7.426l.837.833.867-.867-.833-.837a6.037,6.037,0,0,1,3.219-1.333V6.4h1.212V5.223a6.037,6.037,0,0,1,3.219,1.333l-.833.837.867.867.837-.833a6.037,6.037,0,0,1,1.333,3.219H16.1v1.212h1.182a6.037,6.037,0,0,1-1.333,3.219l-.837-.833-.867.867.837.837.151.151h2.226A7.874,7.874,0,0,0,11.251,3.375Z" fill="#272727"/>
  </g>
</svg>
