<svg id="Group_978" data-name="Group 978" xmlns="http://www.w3.org/2000/svg" width="15.175" height="15.361" viewBox="0 0 15.175 15.361">
  <path id="Path_513" data-name="Path 513" d="M1233.965,119.092h1.448a.235.235,0,0,1,.234.235v2.058h11.342v-2.058a.234.234,0,0,1,.234-.235h1.448a.235.235,0,0,1,.234.235v3.743a.234.234,0,0,1-.234.235h-14.706a.234.234,0,0,1-.234-.235v-3.743A.234.234,0,0,1,1233.965,119.092Z" transform="translate(-1233.731 -107.944)" fill="#4d4e50"/>
  <path id="Rectangle_6" data-name="Rectangle 6" d="M.891,0H4.2a.89.89,0,0,1,.89.89v0a.891.891,0,0,1-.891.891H.891A.891.891,0,0,1,0,.891v0A.891.891,0,0,1,.891,0Z" transform="translate(5.043 10.127)" fill="#4d4e50"/>
  <path id="Path_514" data-name="Path 514" d="M1244.157,74.054l2.63-3.082a.7.7,0,0,1,.943,0l2.63,3.082,2.63,3.082c.21.246-.052.553-.472.553h-2.757v2.546a.235.235,0,0,1-.235.235h-4.615a.235.235,0,0,1-.234-.235V77.69H1242c-.419,0-.681-.307-.472-.553Z" transform="translate(-1239.672 -70.787)" fill="#4d4e50"/>
</svg>
